{"title":"State Of Mind - The Psychology Of Control","uid":8708381,"size":1451610379,"categoryP":"video","categoryS":"other","magnet":"?xt=urn:btih:eb2d9305d940255e93051155f6490468a176018e&amp;dn=State+Of+Mind+-+The+Psychology+Of+Control&amp;tr=udp%3A%2F%2Ftracker.openbittorrent.com%3A80&amp;tr=udp%3A%2F%2Fopen.demonii.com%3A1337&amp;tr=udp%3A%2F%2Ftracker.coppersurfer.tk%3A6969&amp;tr=udp%3A%2F%2Fexodus.desync.com%3A6969","seeders":1,"leechers":0,"uploader":"bassboy99","files":2,"time":1374181521,"description":"*********************************************************************************\n     State Of Mind - The Psychology Of Control - Full Premiere with Extras\n*********************************************************************************\n\nState Of Mind: The Psychology Of Control featuring commentary by Alex Jones and movie extras, from the creators of A Noble Lie: Oklahoma City 1995, reveals that much of what we believe to be truth is actually deliberate deception. The global elites are systematically implanting lies into our consciousness to erect a &quot;tyranny over the minds of men.&quot; This film exposes the mind control methods being used to turn our once vibrant society into a land of obedient sheeple. \n\nAre we controlled?\nTo what extent and by whom?\nWhat does it mean for humanity's future?\n\nFrom cradle to grave our parents, peers, institutions and society inform our values and behaviors but this process has been hijacked. State Of Mind examines the science of control that has evolved over generations to keep us firmly in place so that dictators, power brokers and corporate puppeteers may profit from our ignorance and slavery. From the anvil of compulsory schooling to media and entertainment, we are kept in perpetual bondage to the ideas that shape our actions.\n\nState Of Mind delves into the abyss to expose the true agendas at work. This film reveals the secret manipulations at work and provides shocking and suppressed historical and current examples. From the ancient roots of the control of human behavior to its maturity in the mind control experiments of intelligence agencies and other organs of manipulation, State Of Mind reveals a plan for the future that drives home the dreadful price of our ignorance.\n\nWe are prepared for a new paradigm. Will we choose our own paths or have one selected for us? State Of Mind unveils the answers that may decide whether humankind will fulfill its destiny or be forever shackled to its own creation.\n\n\nGeneral\nComplete name                  : State Of Mind - The Psychology Of Control.mp4\nFormat                         : MPEG-4\nFormat profile                 : Base Media / Version 2\nCodec ID                       : mp42\nFile size                      : 1.35 GiB\nDuration                       : 2h 43mn\nOverall bit rate mode          : Variable\nOverall bit rate               : 1 181 Kbps\nEncoded date                   : UTC 2013-07-17 21:37:39\nTagged date                    : UTC 2013-07-17 22:08:38\nWriting application            : HandBrake 0.9.8 2012071800\n\nVideo\nID                             : 1\nFormat                         : AVC\nFormat/Info                    : Advanced Video Codec\nFormat profile                 : &lt;a class=&quot;__cf_email__&quot; href=&quot;/cdn-cgi/l/email-protection&quot; data-cfemail=&quot;642c0d030c2428574a54&quot;&gt;[email&amp;#160;protected]&lt;/a&gt;&lt;script cf-hash='f9e31' type=&quot;text/javascript&quot;&gt;\n/* &lt;![CDATA[ */!function(){try{var t=&quot;currentScript&quot;in document?document.currentScript:function(){for(var t=document.getElementsByTagName(&quot;script&quot;),e=t.length;e--;)if(t[e].getAttribute(&quot;cf-hash&quot;))return t[e]}();if(t&amp;&amp;t.previousSibling){var e,r,n,i,c=t.previousSibling,a=c.getAttribute(&quot;data-cfemail&quot;);if(a){for(e=&quot;&quot;,r=parseInt(a.substr(0,2),16),n=2;a.length-n;n+=2)i=parseInt(a.substr(n,2),16)^r,e+=String.fromCharCode(i);e=document.createTextNode(e),c.parentNode.replaceChild(e,c)}}}catch(u){}}();/* ]]&gt; */&lt;/script&gt;\nFormat settings, CABAC         : No\nFormat settings, ReFrames      : 4 frames\nCodec ID                       : avc1\nCodec ID/Info                  : Advanced Video Coding\nDuration                       : 2h 43mn\nBit rate mode                  : Variable\nBit rate                       : 800 Kbps\nWidth                          : 720 pixels\nHeight                         : 404 pixels\nDisplay aspect ratio           : 16:9\nFrame rate mode                : Constant\nFrame rate                     : 29.970 fps\nColor space                    : YUV\n\nAudio #1\nID                             : 2\nFormat                         : AAC\nFormat/Info                    : Advanced Audio Codec\nFormat profile                 : LC\nCodec ID                       : 40\nDuration                       : 2h 43mn\nBit rate mode                  : Variable\nBit rate                       : 127 Kbps\nMaximum bit rate               : 215 Kbps\nChannel(s)                     : 2 channels\nChannel positions              : Front: L R\nSampling rate                  : 48.0 KHz\nCompression mode               : Lossy\nStream size                    : 148 MiB (11%)\nLanguage                       : English\nEncoded date                   : UTC 2013-07-17 21:37:39\nTagged date                    : UTC 2013-07-17 22:08:37\n\nAudio #2\nID                             : 3\nFormat                         : AAC\nFormat/Info                    : Advanced Audio Codec\nFormat profile                 : LC\nCodec ID                       : 40\nDuration                       : 2h 43mn\nBit rate mode                  : Variable\nBit rate                       : 248 Kbps\nMaximum bit rate               : 482 Kbps\nChannel(s)                     : 2 channels\nChannel positions              : Front: L R\nSampling rate                  : 48.0 KHz\nCompression mode               : Lossy\nStream size                    : 291 MiB (21%)\nLanguage                       : English\nEncoded date                   : UTC 2013-07-17 21:37:39\nTagged date                    : UTC 2013-07-17 22:08:37\n","torrent":{"xt":"urn:btih:eb2d9305d940255e93051155f6490468a176018e","amp;dn":"State+Of+Mind+-+The+Psychology+Of+Control","amp;tr":["udp%3A%2F%2Ftracker.openbittorrent.com%3A80","udp%3A%2F%2Fopen.demonii.com%3A1337","udp%3A%2F%2Ftracker.coppersurfer.tk%3A6969","udp%3A%2F%2Fexodus.desync.com%3A6969"],"infoHash":"eb2d9305d940255e93051155f6490468a176018e","infoHashBuffer":{"type":"Buffer","data":[235,45,147,5,217,64,37,94,147,5,17,85,246,73,4,104,161,118,1,142]},"announce":[],"urlList":[]}}